<svg xmlns="http://www.w3.org/2000/svg" width="24" height="24" viewBox="0 0 24 24" fill="none">
<rect width="24" height="24" rx="4" fill="black"/>
<path d="M9.25043 20C10.7681 20 11.9999 18.8053 11.9999 17.3333V14.6667H9.25043C7.73273 14.6667 6.50098 15.8613 6.50098 17.3333C6.50098 18.8053 7.73273 20 9.25043 20Z" fill="#0ACF83"/>
<path d="M6.50098 12C6.50098 10.528 7.73273 9.33334 9.25043 9.33334H11.9999V14.6667H9.25043C7.73273 14.6667 6.50098 13.472 6.50098 12Z" fill="#A259FF"/>
<path d="M6.50098 6.66667C6.50098 5.19467 7.73273 4 9.25043 4H11.9999V9.33333H9.25043C7.73273 9.33333 6.50098 8.13867 6.50098 6.66667Z" fill="#F24E1E"/>
<path d="M12 4H14.7495C16.2672 4 17.4989 5.19467 17.4989 6.66667C17.4989 8.13867 16.2672 9.33333 14.7495 9.33333H12V4Z" fill="#FF7262"/>
<path d="M17.4989 12C17.4989 13.472 16.2672 14.6667 14.7495 14.6667C13.2318 14.6667 12 13.472 12 12C12 10.528 13.2318 9.33334 14.7495 9.33334C16.2672 9.33334 17.4989 10.528 17.4989 12Z" fill="#1ABCFE"/>
</svg>
