<svg width="42" height="36" viewBox="0 0 42 36" fill="none" xmlns="http://www.w3.org/2000/svg">
<path d="M38.8547 0H7.49202C5.06015 0 3.50292 2.59188 4.64087 4.7466L7.77797 10.7021H2.09076C1.7306 10.7022 1.37657 10.7956 1.06296 10.9732C0.749352 11.1507 0.486797 11.4065 0.300725 11.7156C0.114654 12.0248 0.0113728 12.3769 0.000886764 12.7378C-0.0095993 13.0987 0.0730641 13.4562 0.240871 13.7757L10.3314 32.9227C10.5093 33.2595 10.7754 33.5412 11.101 33.7378C11.4267 33.9343 11.7996 34.0381 12.1796 34.0381C12.5597 34.0381 12.9326 33.9343 13.2583 33.7378C13.5839 33.5412 13.85 33.2595 14.0279 32.9227L16.7683 27.7507L20.2065 34.2762C21.4165 36.5714 24.6945 36.5756 25.9088 34.283L41.6287 4.62638C42.7398 2.52883 41.2237 0 38.8547 0ZM24.7666 12.6711L17.9884 25.4615C17.87 25.6854 17.6929 25.8728 17.4762 26.0034C17.2596 26.1341 17.0115 26.2032 16.7587 26.2032C16.5058 26.2032 16.2578 26.1341 16.0411 26.0034C15.8245 25.8728 15.6474 25.6854 15.5289 25.4615L8.81613 12.7249C8.70393 12.5125 8.64833 12.2747 8.65471 12.0345C8.66109 11.7943 8.72924 11.5598 8.85255 11.3537C8.97586 11.1476 9.15016 10.977 9.35856 10.8582C9.56697 10.7395 9.80242 10.6768 10.0421 10.6761H23.5708C23.8045 10.6761 24.0343 10.7367 24.2377 10.8521C24.4411 10.9675 24.6112 11.1336 24.7316 11.3345C24.852 11.5353 24.9185 11.7639 24.9246 11.9981C24.9307 12.2323 24.8763 12.4642 24.7666 12.6711Z" fill="#F71963"/>
</svg>
