<svg width="840" height="480" viewBox="0 0 840 480" fill="none" xmlns="http://www.w3.org/2000/svg">
<rect width="840" height="480" fill="white"/>
<rect x="67" y="95" width="748" height="360" fill="white" stroke="#DDDDDD" stroke-width="2"/>
<rect x="303" y="361" width="62" height="4" fill="#DDDDDD"/>
<rect x="303" y="389" width="62" height="4" fill="#DDDDDD"/>
<rect x="303" y="417" width="62" height="4" fill="#DDDDDD"/>
<rect x="276" y="354" width="18" height="18" rx="3" fill="white"/>
<rect x="276" y="354" width="18" height="18" rx="3" stroke="#DDDDDD" stroke-width="2"/>
<rect x="275" y="382" width="18" height="18" rx="3" fill="white"/>
<rect x="275" y="382" width="18" height="18" rx="3" stroke="#DDDDDD" stroke-width="2"/>
<rect x="274.5" y="409.5" width="19" height="19" rx="3.5" fill="#2953B2"/>
<path d="M288 416L283 422L280 419" stroke="white" stroke-width="2" stroke-linecap="round" stroke-linejoin="round"/>
<rect x="274.5" y="409.5" width="19" height="19" rx="3.5" stroke="#2953B2"/>
<rect x="274" y="225" width="20" height="20" rx="10" fill="#2953B2"/>
<circle cx="284" cy="235" r="4" fill="white"/>
<rect x="275" y="254" width="18" height="18" rx="9" fill="white"/>
<rect x="275" y="254" width="18" height="18" rx="9" stroke="#DDDDDD" stroke-width="2"/>
<rect x="275" y="282" width="18" height="18" rx="9" fill="white"/>
<rect x="275" y="282" width="18" height="18" rx="9" stroke="#DDDDDD" stroke-width="2"/>
<rect x="306" y="233" width="62" height="4" fill="#DDDDDD"/>
<rect x="306" y="261" width="62" height="4" fill="#DDDDDD"/>
<rect x="306" y="289" width="62" height="4" fill="#DDDDDD"/>
<rect x="1" y="41" width="40" height="438" stroke="#DDDDDD" stroke-width="2"/>
<rect x="1" y="1" width="838" height="40" stroke="#DDDDDD" stroke-width="2"/>
<rect x="66" y="66" width="132" height="4" fill="#DDDDDD"/>
<rect x="756" y="52" width="60" height="32" rx="4" fill="#2953B2"/>
<rect x="770" y="66" width="32" height="4" fill="white"/>
<rect x="274" y="121" width="132" height="4" fill="#DDDDDD"/>
<rect x="274" y="205" width="132" height="4" fill="#DDDDDD"/>
<rect x="274" y="333" width="132" height="4" fill="#DDDDDD"/>
<rect x="273" y="142" width="335" height="30" rx="3" fill="white" stroke="#DDDDDD" stroke-width="2"/>
</svg>
