<svg width="840" height="480" viewBox="0 0 840 480" fill="none" xmlns="http://www.w3.org/2000/svg">
<rect width="840" height="480" fill="white"/>
<rect x="67" y="95" width="748" height="360" fill="white" stroke="#DDDDDD" stroke-width="2"/>
<rect x="275" y="402" width="18" height="18" rx="9" fill="white"/>
<rect x="275" y="402" width="18" height="18" rx="9" stroke="#DDDDDD" stroke-width="2"/>
<rect x="306" y="409" width="62" height="4" fill="#DDDDDD"/>
<rect x="415" y="402" width="18" height="18" rx="9" fill="white"/>
<rect x="415" y="402" width="18" height="18" rx="9" stroke="#DDDDDD" stroke-width="2"/>
<rect x="446" y="409" width="62" height="4" fill="#DDDDDD"/>
<rect x="1" y="41" width="40" height="438" stroke="#DDDDDD" stroke-width="2"/>
<rect x="1" y="1" width="838" height="40" stroke="#DDDDDD" stroke-width="2"/>
<rect x="66" y="66" width="132" height="4" fill="#DDDDDD"/>
<rect x="756" y="52" width="60" height="32" rx="4" fill="#2953B2"/>
<rect x="770" y="66" width="32" height="4" fill="white"/>
<rect x="274" y="121" width="132" height="4" fill="#2953B2"/>
<rect x="274" y="277" width="132" height="4" fill="#2953B2"/>
<rect x="274" y="381" width="132" height="4" fill="#2953B2"/>
<rect x="273" y="142" width="335" height="30" rx="3" fill="white" stroke="#DDDDDD" stroke-width="2"/>
<rect x="273" y="182" width="335" height="30" rx="3" fill="white" stroke="#DDDDDD" stroke-width="2"/>
<rect x="273" y="222" width="335" height="30" rx="3" fill="white" stroke="#DDDDDD" stroke-width="2"/>
<rect x="273" y="298" width="335" height="58" rx="3" fill="white" stroke="#DDDDDD" stroke-width="2"/>
</svg>
